<svg xmlns="http://www.w3.org/2000/svg" width="256" height="256"><path fill="#1976D2" fill-opacity=".016" fill-rule="evenodd" d="M0 128.004v128.004l128.25-.254 128.25-.254.254-127.75L257.008 0H0zm.485.496c0 70.4.119 99.053.265 63.672s.146-92.98 0-128S.485 58.1.485 128.5"/><path fill="#1976D2" fill-opacity=".605" fill-rule="evenodd" d="M37.478 1.868c-8.555 2.45-16.253 7.165-22.617 13.852C7.964 22.967 4.173 29.406 1.83 37.856.124 44.01 0 50.102 0 127.834c0 90.797-.095 89.125 5.702 100.565 3.49 6.887 13.52 17.072 20.789 21.112C38.464 256.165 35.891 256 128 256c72.458 0 84.005-.204 89.356-1.575 17.114-4.387 32.787-19.769 36.735-36.052.649-2.68 1.57-5.301 2.045-5.823 1.157-1.272 1.131-170.833-.026-170.118-.49.303-1.202-1.133-1.582-3.191-2.013-10.902-12.863-25.451-23.964-32.136-12.16-7.321-9.122-7.113-103.042-7.034C51.09.136 42.956.298 37.478 1.868m46.887 18.057c-.516 2.578-1.08 3.075-3.49 3.075-2.208 0-2.875.464-2.875 2 0 1.545.667 2 2.93 2 2.278 0 3.002.501 3.25 2.25.21 1.477 1.007 2.25 2.32 2.25s2.11-.773 2.32-2.25c.248-1.749.972-2.25 3.25-2.25 2.263 0 2.93-.455 2.93-2s-.667-2-2.934-2c-2.454 0-2.985-.448-3.25-2.741-.467-4.047-3.661-4.286-4.451-.334m82 0c-.516 2.578-1.08 3.075-3.49 3.075-2.208 0-2.875.464-2.875 2 0 1.539.667 2 2.892 2 2.27 0 3.03.551 3.535 2.566.797 3.174 3.926 2.941 4.393-.326.247-1.738.976-2.24 3.25-2.24 2.263 0 2.93-.455 2.93-2s-.667-2-2.934-2c-2.454 0-2.985-.448-3.25-2.741-.467-4.047-3.661-4.286-4.451-.334M41.5 22.526c-.55.203-4.275 1.34-8.277 2.527l-7.277 2.158.277 14.05.277 14.051 5.096 1.731c2.802.951 6.515 2.042 8.25 2.423l3.154.693.015-15.33c.015-15.011.638-18.78 2.873-17.398.741.458 1.112 6.032 1.112 16.707v16.021l3.154-.693c1.735-.381 5.448-1.472 8.25-2.423l5.096-1.731.277-14.116.277-14.115-8.328-2.541c-7.728-2.356-11.749-2.926-14.226-2.014m157.223 2.043-7.777 2.508.277 14.12.277 14.12 6.945 2.342c3.819 1.287 7.532 2.341 8.25 2.341 1.019 0 1.305-3.495 1.305-15.941 0-14.918.649-18.738 2.817-16.578.375.374.825 8.028.999 17.009l.316 16.328 8.184-2.749 8.184-2.748.277-14.11.277-14.11-7.277-2.185c-10.507-3.155-14.176-3.21-23.054-.347m-75.735 9.711c-2.401 4.521-5.63 10.377-7.177 13.014S113 52.293 113 52.544s6.525.456 14.5.456 14.5-.211 14.5-.47c0-.567-11.854-22.316-13.49-24.75-.997-1.483-1.758-.588-5.522 6.5m-90.264-2.146c-3.886 2.175-.43 7.849 3.5 5.746C37.201 37.357 38 36.061 38 35c0-2.515-2.995-4.142-5.276-2.866m20.943.533c-1.173 1.173-.715 4.048.852 5.349 2.263 1.878 5.84-1.477 4.414-4.142-.985-1.84-3.953-2.52-5.266-1.207m142.046-.046c-1.19 1.189-.8 4.062.723 5.326 2.139 1.775 5.778-.435 5.375-3.265-.312-2.189-4.541-3.619-6.098-2.061m22.387 1.192c-.802 1.499-.632 2.3.752 3.553 1.498 1.356 2.077 1.406 3.577.31.983-.72 1.622-2.178 1.42-3.242-.507-2.654-4.434-3.078-5.749-.621M84.701 37.632c-.385.386-.701 1.526-.701 2.535 0 1.38-.76 1.833-3.073 1.833-2.387 0-3 .391-2.742 1.75.198 1.043 1.414 1.875 3.012 2.06 1.873.217 2.774.97 2.991 2.5.432 3.033 4.199 2.984 4.632-.06.245-1.727.976-2.25 3.143-2.25 1.552 0 3.065-.631 3.361-1.402.736-1.917-.161-2.598-3.421-2.598-2.101 0-2.841-.537-3.083-2.24-.317-2.217-2.765-3.482-4.119-2.128m81.726 1.802c-.51 2.033-1.26 2.566-3.609 2.566-2.283 0-2.888.402-2.633 1.75.197 1.036 1.412 1.875 2.98 2.057 1.84.214 2.834 1.052 3.26 2.75.86 3.428 4.575 3.382 4.575-.057 0-2.111.467-2.5 3-2.5 2.333 0 3-.444 3-2 0-1.545-.667-2-2.93-2-2.274 0-3.003-.502-3.25-2.24-.467-3.267-3.596-3.5-4.393-.326m-41.387 4.018c-.663.799-.913 2.374-.555 3.5.878 2.768 5.152 2.768 6.03 0 .7-2.205-.973-4.952-3.015-4.952-.69 0-1.797.653-2.46 1.452M.478 128c0 47.025.122 66.263.272 42.75.149-23.512.149-61.987 0-85.5C.6 61.738.478 80.975.478 128M32.2 46.2c-2.986 2.986.326 7.659 4.024 5.68C39.172 50.302 37.843 45 34.5 45c-.605 0-1.64.54-2.3 1.2m22 0c-1.65 1.65-1.504 4.303.319 5.816 1.243 1.031 1.878.934 3.5-.533 2.392-2.165 2.451-2.87.41-4.912-1.886-1.886-2.648-1.952-4.229-.371m142.524-.066c-2.305 1.291-2.19 4.546.207 5.829 2.126 1.138 5.069-.893 5.069-3.499 0-2.063-3.215-3.483-5.276-2.33m21.847.437c-1.973 1.974-1.973 2.884-.002 4.856 1.185 1.184 2.043 1.316 3.5.536 2.177-1.165 2.532-3.962.731-5.763-1.581-1.581-2.343-1.515-4.229.371M36 76c-2.554 2.554-2.645 8.106-.171 10.345 2.471 2.237 8.424 2.138 10.516-.174 1.698-1.876 2.199-6.811.89-8.771-1.091-1.633-4.817-3.4-7.169-3.4-1.136 0-2.966.9-4.066 2m172.455.455C203.574 81.335 206.764 88 213.982 88c4.327 0 7.018-2.596 7.018-6.768 0-3.105-4.28-7.232-7.5-7.232-1.425 0-3.695 1.105-5.045 2.455m-88.955.514c-12.129 1.961-24.774 9.376-32.365 18.98-14.773 18.689-14.576 44.798.479 63.337 4.889 6.02 15.075 13.065 22.886 15.827 12.943 4.576 31.458 2.711 43.397-4.373 27.823-16.509 33.58-53.173 12.103-77.089-11.324-12.611-30.073-19.337-46.5-16.682M21.389 80.43c-.996 2.595.399 4.739 2.857 4.39 1.652-.235 2.254-.987 2.254-2.82s-.602-2.585-2.254-2.82c-1.353-.192-2.496.308-2.857 1.25M39 81q0 2 2 2t2-2-2-2-2 2m173 0c0 1.506.522 2.046 1.75 1.81.963-.186 1.75-1 1.75-1.81s-.787-1.624-1.75-1.81c-1.228-.236-1.75.304-1.75 1.81m15.53-1.048c-.363.586-.366 1.988-.009 3.115 1.009 3.178 5.979 2.291 5.979-1.067 0-1.962-.572-2.566-2.656-2.807-1.46-.169-2.952.172-3.314.759M122 83.059c-10.078.94-17.132 4.262-25.323 11.924-4.943 4.624-7.661 8.228-10.431 13.832-3.645 7.374-3.746 7.877-3.746 18.632 0 10.362.2 11.476 3.201 17.812 3.603 7.605 11.608 16.666 18.071 20.453 17.427 10.213 39.699 7.85 54.629-5.796 10.975-10.03 15.09-20.136 14.422-35.412-.343-7.856-.871-10.159-3.595-15.693-3.898-7.918-13.131-17.715-19.953-21.172-8.455-4.284-16.31-5.603-27.275-4.58m-.816 26.503c-6.972 1.876-12.426 5.155-20.05 12.055l-6.237 5.644 2.301 2.459c1.266 1.352 5.585 4.657 9.599 7.344 17.184 11.507 29.805 10.363 47.453-4.303 2.613-2.171 4.75-4.542 4.75-5.27 0-1.524-10.823-11.144-16-14.22-3.385-2.012-13.251-5.339-15.432-5.205-.587.036-3.46.709-6.384 1.496m-2.684 6.308c-2.2 1.004-6.25 3.879-9 6.388l-5 4.561 2.99 3.146c1.645 1.731 5.794 4.526 9.22 6.213 5.331 2.625 7.063 3.004 12.01 2.631 6.964-.525 11.854-2.734 17.53-7.921l4.25-3.884-5-4.654c-6.283-5.848-11.609-8.306-18-8.306-2.75 0-6.8.822-9 1.826m-96.833 55.797c-1.029 1.029-.788 5.14.342 5.839 1.961 1.212 4.991-.589 4.991-2.966 0-2.755-3.543-4.664-5.333-2.873m206.379.777c-2.701 3.255 1.769 7.17 4.765 4.174 1.273-1.274 1.404-2.055.565-3.387-1.46-2.318-3.775-2.66-5.33-.787M113.445 205.75c.362.963 2.375 4.675 4.474 8.25a803 803 0 0 1 6.788 11.812l2.973 5.312 5.319-9.312c2.926-5.122 6.416-11.224 7.756-13.562l2.435-4.25h-15.202c-14.062 0-15.153.131-14.543 1.75m4.57 1.731c-1.022 1.232-1.055 2.135-.152 4.117 1.33 2.92 4.744 3 6.53.152 2.326-3.711-3.567-7.655-6.378-4.269m13.185-.281c-2.62 2.62-.892 6.8 2.81 6.8 1.103 0 3.99-2.894 3.99-4 0-1.284-2.968-4-4.371-4-.676 0-1.769.54-2.429 1.2m-7.15 11.707c-1.484 2.773 2.061 7.06 4.571 5.526 2.97-1.815 3.918-4.079 2.449-5.849-1.805-2.175-5.782-1.991-7.02.323m-39.208 7.54c-.689 1.514-2.108 2.562-3.72 2.75-1.529.178-2.742 1.026-2.937 2.053-.255 1.346.349 1.75 2.617 1.75 2.492 0 3.043.476 3.563 3.075.79 3.952 3.984 3.713 4.451-.334.26-2.251.811-2.741 3.084-2.741 3.263 0 4.16-.68 3.424-2.598-.296-.771-1.791-1.402-3.323-1.402-2.136 0-2.93-.582-3.412-2.5-.796-3.173-2.315-3.195-3.747-.053M167.2 225.2c-.66.66-1.2 1.755-1.2 2.434 0 .678-1.234 1.376-2.741 1.55-4.186.483-4.239 3.598-.069 3.998 2.792.268 3.36.758 3.632 3.127.427 3.727 3.55 3.283 3.994-.568.267-2.31.789-2.741 3.324-2.741 2.323 0 2.931-.398 2.675-1.75-.197-1.036-1.412-1.875-2.98-2.057-1.84-.214-2.834-1.052-3.26-2.75-.68-2.71-1.578-3.04-3.375-1.243"/><path fill="#1976D2" fill-opacity=".142" fill-rule="evenodd" d="M40.411 1.484C21.511 5.596 5.494 21.739 1.469 40.73c-2.12 10.004-2.12 164.536 0 174.54 4.075 19.23 20.089 35.197 39.409 39.292 5.371 1.138 21.835 1.403 87.122 1.403 88.407 0 88.153.016 100.088-6.009 12.633-6.378 24.86-22.544 26.521-35.068.36-2.713 1.045-5.174 1.523-5.469.479-.297.868-37.248.868-82.537 0-46.043-.38-81.765-.867-81.464-.477.295-1.153-1.545-1.501-4.088-.349-2.544-2.28-8.046-4.291-12.227C243.7 15.295 230.157 4.624 215.27 1.469 205.716-.555 49.723-.542 40.411 1.484M84 19.43c0 2.039-.491 2.57-2.378 2.57-1.307 0-2.937.675-3.622 1.5-1.799 2.167.469 4.671 3.533 3.902 1.863-.467 2.368-.13 2.636 1.76.448 3.162 4.204 3.233 4.651.088.246-1.737.974-2.25 3.191-2.25 1.579 0 3.161-.47 3.516-1.044.977-1.58-1.474-3.956-4.08-3.956-1.632 0-2.401-.659-2.627-2.25-.206-1.446-1.124-2.364-2.57-2.57-1.832-.26-2.25.158-2.25 2.25m82.701-1.798c-.385.386-.701 1.526-.701 2.535 0 1.246-.736 1.833-2.3 1.833-1.265 0-2.805.505-3.422 1.122-1.793 1.793-.309 3.878 2.759 3.878 2.167 0 2.898.523 3.143 2.25.21 1.477 1.007 2.25 2.32 2.25s2.11-.773 2.32-2.25c.246-1.737.974-2.25 3.191-2.25 1.579 0 3.161-.47 3.516-1.044.977-1.58-1.474-3.956-4.08-3.956-1.628 0-2.402-.659-2.627-2.24-.317-2.217-2.765-3.482-4.119-2.128m-43.132 7.625c-2.161 3.984-6.953 12.53-10.647 18.993L106.206 56h42.907l-2.575-4.25c-1.417-2.338-6.202-10.888-10.635-19s-8.136-14.747-8.231-14.743-1.941 3.266-4.103 7.25M34.5 21.453c-12.618 3.644-11.517 2.25-11.382 14.404.079 7.058.376 9.632.882 7.643.601-2.36.792-1.614.897 3.5.073 3.575.474 7.035.89 7.69.64 1.007 15.204 6.259 17.463 6.297.413.007.8-5.049.862-11.237l.112-11.25 1.327 7c.729 3.85 1.354 8.913 1.388 11.25s.398 4.212.811 4.165 4.35-1.285 8.75-2.75l8-2.665.547-6.5.547-6.5.532 5.5c.293 3.025.497-1.023.454-8.996l-.08-14.495-9.5-2.736c-11.35-3.269-12.246-3.281-22.5-.32m163.155.285c-6.494 1.899-9.092 3.142-9.772 4.674-.56 1.264-.579 6.822-.047 14.088.812 11.081.905 11.464 1.208 5l.329-7 .563 8.5.564 8.5 7.948 2.781c4.372 1.529 8.534 2.556 9.25 2.281.932-.357 1.322-3.134 1.372-9.781.039-5.104.457-10.181.93-11.281.548-1.276.885 2.254.93 9.75.039 6.534.483 11.75 1.001 11.75.512 0 4.517-1.182 8.9-2.626 8.677-2.858 8.974-3.249 9.301-12.249l.131-3.625L231 46c.493 2.341.78-.349.868-8.128.093-8.224-.234-11.929-1.118-12.657-1.765-1.456-18.647-6.23-21.707-6.14-1.399.042-6.523 1.24-11.388 2.663m-92.954 6.894c-1.182 1.182-.779 4.124.64 4.668 2.015.774 3.903-.796 3.496-2.908-.371-1.926-2.895-3-4.136-1.76m41.631.946c-.333.867.039 2.222.827 3.009 1.215 1.216 1.715 1.226 3.299.067C152.786 30.952 151.862 28 149 28c-1.135 0-2.335.71-2.668 1.578M32.088 33.835c-.79 1.476-.687 2.253.42 3.172 2.129 1.767 4.694.433 4.312-2.242-.411-2.884-3.374-3.467-4.732-.93m21.923-.348C52.349 35.489 53.456 38 56 38c1.135 0 2.324-.681 2.643-1.513C59.218 34.99 57.457 32 56 32c-.415 0-1.311.669-1.989 1.487m142.351.013c-.82 2.136.303 4.5 2.138 4.5 2.12 0 3.006-2.685 1.489-4.513-1.574-1.897-2.896-1.893-3.627.013m22.599.047c-1.579 1.902-.414 4.686 1.786 4.267 2.198-.419 2.874-4.362.879-5.127-.814-.313-2.013.074-2.665.86m-134.26 3.085c-.385.386-.701 1.526-.701 2.535C84 40.413 83.264 41 81.7 41c-1.265 0-2.805.505-3.422 1.122C76.484 43.916 77.969 46 81.041 46c2.34 0 2.881.473 3.143 2.75.227 1.978.878 2.75 2.316 2.75s2.089-.772 2.316-2.75c.264-2.289.799-2.75 3.191-2.75 1.581 0 3.165-.47 3.52-1.044.977-1.58-1.474-3.956-4.08-3.956-1.628 0-2.402-.659-2.627-2.24-.317-2.217-2.765-3.482-4.119-2.128m82 0c-.385.386-.701 1.526-.701 2.535 0 1.263-.739 1.833-2.378 1.833-2.663 0-5.137 2.358-4.149 3.956.355.574 1.968 1.044 3.586 1.044 2.435 0 2.941.411 2.941 2.393 0 2.377 2.348 4.128 4.09 3.051.501-.309.91-1.66.91-3.003 0-2.035.49-2.441 2.941-2.441 1.618 0 3.231-.47 3.586-1.044.977-1.58-1.474-3.956-4.08-3.956-1.628 0-2.402-.659-2.627-2.24-.317-2.217-2.765-3.482-4.119-2.128m-41.983 7.618c-.64 1.786 1.095 4.75 2.782 4.75s3.422-2.964 2.782-4.75c-.247-.687-1.499-1.25-2.782-1.25s-2.535.563-2.782 1.25M.477 128c0 45.375.123 63.938.273 41.25.15-22.687.15-59.812 0-82.5C.6 64.063.477 82.625.477 128m31.664-80.67c-1.699 2.048-.305 4.836 2.236 4.473 1.514-.216 2.123-1.017 2.123-2.789 0-2.853-2.566-3.844-4.359-1.684m21.346.712c-.82 2.582.596 4.281 3.157 3.788 1.215-.234 1.856-1.217 1.856-2.844 0-3.346-4.011-4.102-5.013-.944m142.104-.417c-.849 2.21 1.719 4.854 3.902 4.016 1.015-.389 1.524-1.498 1.327-2.887-.399-2.808-4.265-3.643-5.229-1.129m22.771-.125c-.793 2.064.282 4.5 1.984 4.5.775 0 1.969-.675 2.654-1.5.993-1.197.993-1.803 0-3-.685-.825-1.879-1.5-2.654-1.5s-1.668.675-1.984 1.5M86 60.797C86 62.789 92.889 70 94.792 70c2.421 0 1.116-3.684-2.584-7.297C88.057 58.65 86 58.018 86 60.797m76.569 2.132c-3.788 3.88-4.339 7.071-1.221 7.071 1.858 0 8.956-8.699 8.155-9.994-1.142-1.849-3.066-1.038-6.934 2.923M126 65.368c0 4.893 1.088 6.435 2.955 4.186 1.76-2.121.919-7.967-1.205-8.369-1.457-.276-1.75.424-1.75 4.183m-58.523 3.67C66.6 70.456 82.903 87 85.177 87c3.705 0 1.634-3.609-6.427-11.202-8.144-7.671-10.017-8.794-11.273-6.76m108.341 6.78C168.14 83.497 166.246 87 169.773 87 172.051 87 187 72.011 187 69.728c0-3.479-3.542-1.55-11.182 6.09m-140.745.817c-2.464 3.132-2.562 4.518-.59 8.331 2.684 5.192 11.493 4.858 13.535-.513 1.479-3.89 1.218-5.308-1.473-7.998-3.441-3.441-8.689-3.359-11.472.18M208 76c-2.78 2.78-2.576 7.515.455 10.545 2.999 3 6.415 3.132 9.91.382C223.894 82.578 220.666 74 213.5 74c-2.167 0-4.262.762-5.5 2m-91.49 1.175c-17.248 3.289-34.446 19.641-39.12 37.193-2.04 7.661-1.761 20.219.619 27.927 3.93 12.722 13.947 24.312 26.347 30.483 8.066 4.015 13.214 5.167 23.212 5.198 20.086.06 38.572-11.535 47.134-29.564 3.412-7.185 3.713-8.567 4.096-18.833.353-9.43.091-12.046-1.756-17.579-8.426-25.235-33.916-39.9-60.532-34.825m-95.47 2.277c-1.43 1.722-.567 5.132 1.498 5.924 3.476 1.334 6.234-2.064 4.423-5.448-1.22-2.28-4.224-2.521-5.921-.476m207 0c-2.648 3.19 1.259 8.205 4.376 5.618 1.881-1.562 2.054-4.2.384-5.87-1.603-1.603-3.295-1.514-4.76.252m-188.594.635c-1.03 1.668 1.287 3.58 2.667 2.2C43.267 81.133 42.545 79 41 79c-.485 0-1.184.489-1.554 1.087m172.899.456c-.754 1.966.138 2.869 2.095 2.118.879-.337 1.276-1.238.936-2.123-.758-1.976-2.272-1.973-3.031.005m-156.813.406c-1.252 2.026.63 3.051 5.6 3.051 4.236 0 4.963-.272 4.682-1.75-.249-1.312-1.495-1.825-4.982-2.051-2.558-.166-4.943.172-5.3.75m134.135-.282c-2.033 2.032-.407 3.333 4.166 3.333 5.4 0 6.681-.676 5.036-2.658-1.14-1.373-8.001-1.877-9.202-.675m-75.905 4.275c-5.577 1.783-14.515 6.85-16.677 9.456-.805.97-.466 1.563 1.374 2.401 2.102.958 3.245.631 8.184-2.343 3.158-1.901 8.32-3.99 11.472-4.641 4.417-.912 5.979-1.725 6.808-3.546.593-1.3 1.077-2.567 1.077-2.816 0-1.053-6.922-.211-12.238 1.489M129 83.315c0 .325.503 1.694 1.117 3.042.833 1.828 2.168 2.609 5.257 3.072 4.473.671 14.12 4.803 16.733 7.168 1.257 1.138 2.228 1.226 4.399.401l2.785-1.059-2.375-2.528c-3.647-3.883-15.618-9.305-22.166-10.04-3.162-.356-5.75-.381-5.75-.056m-4.036 10.268c-1.08 2.521-1.964 4.771-1.964 5s2.055.417 4.567.417c4.276 0 4.523-.144 3.874-2.25-.936-3.034-3.371-7.75-4.002-7.75-.281 0-1.394 2.062-2.475 4.583M35 92.448c0 2.431.265 2.552 5.57 2.552 5.203 0 5.548-.148 5.25-2.25-.279-1.96-.996-2.289-5.57-2.552-5.041-.29-5.25-.201-5.25 2.25m173.401-1.051c-1.004 2.617.563 3.603 5.728 3.603 4.624 0 4.985-.174 4.691-2.25-.273-1.921-1.016-2.295-5.08-2.555-3.524-.226-4.911.086-5.339 1.202m-92.495 2.067C110.595 95.42 106 97.936 106 98.89c0 .876 7.685 4.11 9.767 4.11 1.003 0 6.233-8.782 6.233-10.467 0-.84-2.194-.505-6.094.931M133 92.454c0 1.648 5.174 10.546 6.133 10.546 1.895 0 10.867-3.435 10.867-4.161 0-.381-2.363-1.816-5.25-3.19-5.375-2.558-11.75-4.292-11.75-3.195m-74.443 2.769C57.701 96.445 57 98.385 57 99.534c0 2.93 3.601 6.466 6.584 6.466 3.024 0 7.416-4.119 7.416-6.955 0-5.487-9.28-8.338-12.443-3.822M186 95c-2.074 2.074-2.43 3.715-1.393 6.418.948 2.471 3.393 1.887 3.393-.811 0-2.808 2.626-4.162 4.713-2.43.944.783 1.261 2.201.898 4.017-.38 1.901-.15 2.806.714 2.806 3.858 0 4.98-6.695 1.675-10-1.111-1.111-3.333-2-5-2s-3.889.889-5 2M61.754 98.25c-.655 1.781.201 3.75 1.629 3.75 1.849 0 3.526-2.072 2.932-3.622-.66-1.72-3.941-1.812-4.561-.128m29.598 2.488c-3.541 4.789-7.042 12.476-8.228 18.061-1.502 7.081-1.458 7.39.995 7.021 1.729-.261 2.465-1.684 3.993-7.72 1.031-4.07 3.049-9.406 4.486-11.857 1.904-3.249 2.376-4.987 1.74-6.411-.821-1.84-.995-1.787-2.986.906m69.237-1.11c-.401 1.044.785 4.635 3.032 9.182 2.617 5.297 3.717 8.879 3.784 12.323.085 4.338.335 4.855 2.345 4.861 1.331.003 2.25.619 2.25 1.506 0 1.499-1.862 1.888-7.3 1.525-1.541-.102-3.566.391-4.5 1.096-1.439 1.086-1.508 1.068-.45-.119 2.864-3.213.941-2.408-3 1.255-8.562 7.957-17.301 12.673-26.25 14.166-7.472 1.247-21.933-4.795-30.104-12.576-3.324-3.165-8.88-4.52-11.074-2.7-1.597 1.326-1.778 3.253-.215 2.287.771-.477.905.339.439 2.691-.487 2.465-.39 2.97.362 1.875.802-1.169.981-.861.811 1.391-.131 1.727.34 3.087 1.17 3.38.772.271 1.11.037.761-.528-.345-.559.052-1.581.884-2.271 1.274-1.057 1.403-.97.819.551-.531 1.383-.361 1.605.727.949 1.211-.73 1.218-.607.052.831-.752.927-1.145 2.539-.873 3.581.273 1.042.127 2.492-.324 3.222-1.043 1.687-4.656-6.452-6.151-13.856-.928-4.597-1.361-5.25-3.483-5.25-2.317 0-2.395.208-1.762 4.75 1.213 8.699 9.33 23.898 12.179 22.805.78-.299 1.111-.087.758.484-.969 1.568 5.014 6.585 11.895 9.972 8.358 4.115 17.965 5.557 27.036 4.059 7.622-1.259 17.205-5.466 22.404-9.835 2.996-2.518 3.21-3.049 2.253-5.566-.67-1.764-.693-2.558-.061-2.167.548.339.997 1.264.997 2.057 0 2.82 1.889 1.359 5.782-4.471 8.471-12.685 9.589-28.882 2.925-42.367-1.995-4.036-4.49-8.119-5.544-9.073-1.806-1.635-1.954-1.636-2.574-.02M37 102.5c0 3.572.05 3.617 3.75 3.31 3.431-.284 3.75-.565 3.75-3.31s-.319-3.026-3.75-3.31c-3.7-.307-3.75-.262-3.75 3.31m173 0c0 3.333.167 3.5 3.5 3.5s3.5-.167 3.5-3.5-.167-3.5-3.5-3.5-3.5.167-3.5 3.5m-110.429-1.738c-.686.686 5.619 12.238 6.68 12.238 1.254 0 8.751-4.947 8.733-5.763-.023-.987-14.724-7.164-15.413-6.475m48.946 2.41c-3.841 1.592-7.369 3.28-7.84 3.751-.476.476 1.139 2.23 3.63 3.944 3.416 2.35 4.721 2.794 5.471 1.86 1.401-1.746 6.42-11.874 6.039-12.188-.174-.143-3.46 1.041-7.3 2.633m-27.947-.409c-2.828 2.828 5.948 5.998 11.37 4.108 2.079-.725 3.054-1.661 2.848-2.734-.249-1.294-1.691-1.663-6.981-1.787-3.667-.086-6.924.1-7.237.413m-25.329 4.223c-1.857 2.974-1.539 4.354 1.723 7.48 1.631 1.562 2.694 3.334 2.363 3.937s.398.146 1.621-1.017l2.224-2.113-2.603-5.137c-1.431-2.825-2.937-5.136-3.345-5.136s-1.301.894-1.983 1.986m59.395 3.115c-2.67 4.755-2.752 5.211-1.199 6.749 1.549 1.535 1.904 1.383 5.094-2.188 3.315-3.71 3.379-3.936 1.923-6.75-.828-1.602-1.831-2.912-2.23-2.911-.398.001-2.013 2.296-3.588 5.1m-118.457 1.591c.463 2.404 9.321 2.697 9.321.308 0-1.084-1.341-1.585-4.835-1.808-4.211-.269-4.789-.075-4.486 1.5m172.423-.856c-1.054 1.705 2.197 3.298 6.078 2.979 2.589-.214 3.82-.798 3.82-1.815 0-1.076-1.318-1.585-4.659-1.801-2.563-.166-4.921.121-5.239.637m-119.059 4.912c-.852 2.22-.608 2.902.447 1.252.642-1.005.756.233.345 3.75-.35 2.999-.216 5.25.313 5.25.51 0 2.486-1.31 4.39-2.91l3.462-2.91-2.777-2.923c-3.017-3.175-5.324-3.738-6.18-1.509m31.342-.426c-4.436 1.656-8.333 4.408-12.751 9.008l-3.365 3.504 6.133 4.515c11.484 8.454 21.686 8.473 33.112.062 6.759-4.976 6.802-5.687.647-10.716-8.351-6.823-16.625-9.041-23.776-6.373m39.533-.571c.33.33-.416 1.683-1.659 3.006l-2.259 2.406 3.266 2.918c4.013 3.587 5.852 3.696 6.485.384.267-1.394.222-2.271-.099-1.95s-1.052-1.083-1.624-3.121c-.658-2.346-1.713-3.804-2.875-3.974-1.01-.149-1.566 0-1.235.331M26 121.427c0 3.112-.312 3.573-2.418 3.573-3.38 0-5.582.986-5.582 2.5s2.202 2.5 5.582 2.5c2.097 0 2.418.465 2.418 3.5 0 2.673.414 3.496 1.75 3.485 1.344-.012 1.44-.212.413-.863-.737-.468-1.152-1.92-.924-3.235l.414-2.387 1.11 2.5 1.11 2.5.064-2.75L30 130h24v3.5c0 2.444.452 3.5 1.5 3.5s1.5-1.056 1.5-3.5c0-3.309.184-3.5 3.378-3.5 4.143 0 6.365-2.138 4.14-3.985-.829-.688-2.634-1.035-4.012-.771-2.082.398-2.506.093-2.506-1.801 0-3.321-1.016-5.443-2.607-5.443-.925 0-1.393 1.175-1.393 3.5v3.5H30.127l-.314-3.242c-.206-2.135-.91-3.355-2.063-3.573-1.402-.266-1.75.379-1.75 3.242m10-1.927c0 1.296.924 1.55 4.75 1.305 2.612-.168 4.75-.755 4.75-1.305s-2.138-1.137-4.75-1.305c-3.826-.245-4.75.009-4.75 1.305m160.701-.868c-.385.386-.701 1.948-.701 3.471 0 2.394-.441 2.813-3.25 3.084-2.479.239-3.25.788-3.25 2.313 0 1.524.833 2.119 3.5 2.5 2.155.308 3.538 1.076 3.598 2 .284 4.368.525 5 1.902 5 1.048 0 1.5-1.056 1.5-3.5V130h23.873l.314 3.242c.206 2.135.91 3.355 2.063 3.573 1.397.265 1.75-.376 1.75-3.181 0-3.338.187-3.529 3.75-3.824 2.98-.246 3.75-.721 3.75-2.31s-.77-2.064-3.75-2.31c-3.563-.295-3.75-.486-3.75-3.824 0-2.805-.353-3.446-1.75-3.181-1.153.218-1.857 1.438-2.063 3.573l-.314 3.242h-22.746l-.314-3.242c-.298-3.091-2.484-4.753-4.112-3.126M209 119.5c0 1.111 1.167 1.5 4.5 1.5s4.5-.389 4.5-1.5-1.167-1.5-4.5-1.5-4.5.389-4.5 1.5m-84.8 2.7c-.66.66-1.2 2.47-1.2 4.021 0 3.972 3.883 5.741 7.459 3.398 2.991-1.96 3.266-4.653.712-6.964-2.148-1.944-5.278-2.148-6.971-.455m-27.739 9.757c2.178 2.407 2.677 2.567 1.93.62-.3-.782-1.273-1.702-2.162-2.043-1.328-.509-1.287-.255.232 1.423m-60.282 2.735c.463 2.404 9.321 2.697 9.321.308 0-1.084-1.341-1.585-4.835-1.808-4.211-.269-4.789-.075-4.486 1.5m161.9-.109c.048 1.165.285 1.402.604.605.289-.722.253-1.585-.079-1.917s-.568.258-.525 1.312m12.11 15.667c.152 13.904.298 15.504.75 8.25.484-7.763.671-8.481 1.362-5.222.44 2.078 1.207 3.526 1.705 3.218s1.061 2.718 1.251 6.722.435-1.155.544-11.468L216 133h-6zm-45.73-9.183c-.363.586-.445 1.281-.183 1.543s.743-.218 1.069-1.067c.676-1.762.1-2.072-.886-.476m-128.343 1.738c-.108 2.139.226 2.283 4.634 2 3.42-.22 4.75-.725 4.75-1.805 0-1.005-1.155-1.573-3.5-1.723-2.792-.177-3.095-.04-1.5.68 1.1.496 1.474.934.832.973-.643.038-1.841.328-2.663.643-.923.355-1.674-.124-1.966-1.25-.369-1.43-.496-1.326-.587.482m62.257 5.97c-.592.949-.748 2.625-.346 3.725.677 1.857.822 1.802 2.024-.777 1.509-3.236.075-5.756-1.678-2.948m56.226-.934c-1.016 1.642.677 4.225 2.165 3.305.97-.6.946-1.16-.111-2.606-.927-1.268-1.568-1.486-2.054-.699M36 151c0 1.893.488 2.078 4.75 1.805 3.42-.22 4.75-.725 4.75-1.805s-1.33-1.585-4.75-1.805c-4.262-.273-4.75-.088-4.75 1.805m23.2-.8c-1.858 1.858-1.444 7.27.706 9.215 2.612 2.363 7.935 1.74 9.844-1.153 1.32-1.999 1.304-2.304-.149-2.862-.895-.343-2.336-.035-3.204.686-1.428 1.185-1.409 1.432.204 2.611.98.717 1.358 1.288.84 1.27-.517-.019-2.004-.919-3.302-2.001-1.967-1.638-2.252-2.551-1.705-5.466.694-3.699-.784-4.75-3.234-2.3m133.498-.565c-.31.31-.078 1.631.516 2.935 1.474 3.235-.492 5.596-4.078 4.897-2.571-.5-2.578-.488-.294.512 1.289.564 2.864.699 3.5.301s1.746-.813 2.464-.922c1.016-.154 1.044.117.127 1.222-.648.781-2.585 1.472-4.305 1.536-1.843.068-2.376.31-1.299.589 4.799 1.239 9.558-3.336 8.134-7.821-.639-2.014-3.826-4.187-4.765-3.249m-8.107 6.218c-.29.469.091 1.698.847 2.731 1.268 1.734 1.333 1.668.851-.853-.556-2.906-.857-3.239-1.698-1.878M35 158c-3.947 3.947-1.531 11.345 2.589 7.926 1.282-1.064 1.709-1.061 2.375.016.447.723 1.281 1.025 1.853.671s1.236.377 1.475 1.622c.352 1.829.462 1.697.572-.685.106-2.294.403-2.683 1.336-1.75 3.301 3.301 5.832-.903 3.389-5.629-.833-1.611-2.243-3.208-3.134-3.55-3.347-1.284-8.467-.609-10.455 1.379m32-1c0 .55.423 1 .941 1s1.219-.45 1.559-1-.084-1-.941-1-1.559.45-1.559 1m-6.5 2c.34.55.816 1 1.059 1s.441-.45.441-1-.477-1-1.059-1-.781.45-.441 1M168 169.826c0 1.004 1.238 2.916 2.75 4.25l2.75 2.424-2.377-2.699c-1.363-1.548-2.122-3.361-1.781-4.25.327-.853.159-1.551-.373-1.551-.533 0-.969.822-.969 1.826m-87.076 1.924L78.5 174.5l2.75-2.424c1.513-1.334 2.75-2.571 2.75-2.75 0-.785-.81-.146-3.076 2.424m5.155-1.798c-.043.799-1.533 3.049-3.31 5l-3.231 3.548 3.852-3.637c2.18-2.059 3.616-4.229 3.31-5-.436-1.096-.558-1.078-.621.089m84.921-.639c0 .172 1.463 1.635 3.25 3.25l3.25 2.937-2.937-3.25c-2.738-3.029-3.563-3.71-3.563-2.937m-150.07 3.271c-.95 1.145-1.025 2.046-.27 3.25 2.53 4.036 8.604 1.397 6.374-2.77-1.314-2.456-4.271-2.688-6.104-.48m206.454-.142c-1.076 2.804.093 5.053 2.789 5.366 3.089.359 4.8-2.93 2.787-5.356-1.55-1.867-4.861-1.873-5.576-.01m-162.82 1.265c-.542 1.425-.428 1.54.56.56.684-.679.991-1.486.683-1.793-.308-.308-.867.247-1.243 1.233m133.515-.124c.048 1.165.285 1.402.604.605.289-.722.253-1.585-.079-1.917s-.568.258-.525 1.312M40.045 190.092c-5.859 1.149-13.514 5.902-13.648 8.475-.056 1.09-.375 4.221-.709 6.958-.49 4.016-.425 4.381.338 1.894.519-1.695 1.799-3.856 2.845-4.803 1.813-1.64 1.999-1.596 4.002.949 1.155 1.469 1.811 3.137 1.459 3.707-.384.621-.151.734.582.281.672-.415.99-1.362.705-2.103-.357-.93.01-1.151 1.182-.712 1.419.532 1.495.385.458-.893-.683-.841-.948-1.822-.59-2.181.359-.358-.115-1.499-1.052-2.534-1.607-1.776-1.602-1.925.09-2.622 4.545-1.872 9.034-2.328 13.499-1.37 5.94 1.273 6.638 2.331 3.649 5.529-2.166 2.316-2.917 2.488-9.355 2.14-5.263-.285-6.34-.144-4.339.569l2.661.948-2.161 1.804c-1.189.993-1.598 1.82-.911 1.839s1.25-.342 1.25-.8c0-.459.563-.855 1.25-.881s2.111-.403 3.164-.837c1.342-.553 1.7-.442 1.198.37-.454.734-.195.958.707.612.81-.311 1.724.232 2.123 1.262.666 1.718.771 1.711 2.129-.134 1.721-2.338 1.87-3.95.274-2.964-.699.433-.883.276-.467-.397.956-1.548 3.618-.334 3.639 1.659.01 1.023.803.416 2.098-1.607 1.145-1.787 2.476-3.25 2.958-3.25 1.2 0 4.114 5.744 5.073 10 .757 3.364.774 3.336.421-.717-.538-6.171 1.668-4.972 3.157 1.717l1.225 5.5-.509-5.971c-.912-10.689-7.922-18.73-18.633-21.372-2.581-.636-4.831-1.108-5-1.047-.169.06-2.312.502-4.762.982m157.884 2.658c-7.069 3.581-11.136 9.451-11.528 16.64-.154 2.811-.049 4.091.231 2.845.667-2.956 2.344-1.879 2.452 1.574.05 1.611.571.484 1.297-2.809 1.2-5.435 3.407-10 4.836-10 1.741 0 3.848 4.913 3.279 7.644-.544 2.61-.448 2.554 1.111-.644.938-1.925 1.635-3.838 1.549-4.25s.631-.75 1.594-.75c1.379 0 1.734.822 1.674 3.878-.042 2.133.581 4.72 1.385 5.75 1.138 1.459 1.336 1.509.896.225-.4-1.169.135-1.78 1.844-2.107 1.721-.329 2.575.068 2.996 1.394.525 1.657.858 1.535 3.111-1.142 1.387-1.649 3.157-2.998 3.933-2.998s1.421-.787 1.433-1.75.846-2.821 1.853-4.13l1.83-2.38 1.623 2.318c1.821 2.6 5.164 3.666 4.281 1.365-1.102-2.871.429-1.322 1.807 1.827.781 1.787 1.458 2.67 1.502 1.96.136-2.141-3.551-8.536-6.576-11.407-6.86-6.511-19.009-7.816-28.413-3.053m5.571 2.767c-2.2.799-4.191 1.46-4.424 1.468s.632 1.14 1.924 2.515c3.133 3.335 11.378 3.564 15.365.427 4.261-3.351 3.869-3.697-6.115-5.395-1.512-.257-4.55.186-6.75.985m-97.058 5.389c.308.498 1.385.691 2.392.427 1.219-.319 1.833.063 1.833 1.137 0 .95-.56 1.401-1.357 1.096-1.096-.421-1.134-.094-.198 1.707 1.495 2.873 2.381 3.714 1.591 1.509-.339-.945-.212-1.967.281-2.272.494-.305 4.365 5.779 8.603 13.521 4.239 7.742 8.047 13.714 8.462 13.272.947-1.006 15.951-27.183 15.951-27.829 0-.261-7.452-.474-16.559-.474s-16.332-.367-16.055-.816 8.459-.847 18.182-.885c9.722-.037 17.284.217 16.804.566-.847.617-1.516 4.135-.787 4.135.2 0 1.062-1.35 1.915-3l1.551-3h-21.584c-12.645 0-21.353.375-21.025.906m-83.878 2.801c-.542 1.425-.428 1.54.56.56.684-.679.991-1.486.683-1.793-.308-.308-.867.247-1.243 1.233M119.2 207.2c-3.019 3.019.047 7.808 3.736 5.834 2.6-1.391 2.67-4.639.13-5.999-2.411-1.29-2.411-1.29-3.866.165m12 0c-2.986 2.986.326 7.659 4.024 5.68 2.353-1.259 2.264-4.549-.158-5.845-2.411-1.29-2.411-1.29-3.866.165m35.8 1.741c0 3.327 1.481 4.855 2.395 2.471 1.075-2.801.644-5.412-.895-5.412-.993 0-1.5.993-1.5 2.941m39-1.382c0 .857.412 1.305.915.994s1.112 0 1.353.691c.324.925.961.794 2.417-.496 1.088-.964 2.35-1.414 2.806-1 .457.414.506.19.11-.498-1.087-1.889-7.601-1.624-7.601.309m-184.921 1.024c.048 1.165.285 1.402.604.605.289-.722.253-1.585-.079-1.917s-.568.258-.525 1.312m147.079.417c0 1.375.227 1.938.504 1.25.278-.687.278-1.812 0-2.5-.277-.687-.504-.125-.504 1.25m-126.806.526c-.48 1.25-.88 1.299-2.219.267q-1.637-1.263.272.974c1.048 1.228 2.135 2.233 2.417 2.233.281 0 .227-.284-.12-.631s-.182-1.473.368-2.5c.55-1.028.745-1.869.434-1.869-.312 0-.83.686-1.152 1.526m4.636-.012c-1.111 1.339-1.096 1.549.093 1.292.858-.185 1.359.419 1.266 1.527-.136 1.639.102 1.594 2.25-.424 2.718-2.554 3.04-3.367 1.025-2.594-.758.291-1.812.095-2.343-.436-.619-.619-1.439-.391-2.291.635m39.091.069c.048 1.165.285 1.402.604.605.289-.722.253-1.585-.079-1.917s-.568.258-.525 1.312m144.079.417c0 1.375.227 1.938.504 1.25.278-.687.278-1.812 0-2.5-.277-.687-.504-.125-.504 1.25m3.817 3.796.483 4.704.339-3.882c.187-2.135-.03-4.251-.482-4.703s-.605 1.295-.34 3.881M89.638 212.5c-.432 1.126.165 1.5 2.393 1.5 1.633 0 2.969-.408 2.969-.906s-.97-.653-2.156-.343c-1.478.387-1.932.2-1.441-.593.393-.637.287-1.158-.237-1.158s-1.211.675-1.528 1.5m85.843-.638c.459.806.213 1.718-.603 2.234-.906.574-.97.879-.187.889 1.872.024 2.664-2.04 1.275-3.322-.974-.9-1.084-.855-.485.199m-50.441 6.59c-2.087 2.514-.845 5.048 2.474 5.048 2.386 0 3.054-.479 3.323-2.387.521-3.679-3.442-5.498-5.797-2.661m-40.339 6.18c-.385.386-.701 1.526-.701 2.535 0 1.355-.754 1.833-2.893 1.833-3.128 0-4.637 2.07-2.829 3.878.617.617 2.157 1.122 3.422 1.122 1.548 0 2.3.588 2.3 1.8 0 .99.505 2.305 1.122 2.922 1.69 1.69 3.878.376 3.878-2.329 0-1.81.548-2.397 2.25-2.408 3.194-.022 5.145-1.513 4.427-3.384-.372-.969-1.783-1.601-3.576-1.601-2.306 0-3.033-.496-3.281-2.24-.317-2.217-2.765-3.482-4.119-2.128m82 0c-.385.386-.701 1.526-.701 2.535 0 1.355-.754 1.833-2.893 1.833-3.128 0-4.637 2.07-2.829 3.878.617.617 2.157 1.122 3.422 1.122 1.548 0 2.3.588 2.3 1.8 0 .99.505 2.305 1.122 2.922 1.69 1.69 3.878.376 3.878-2.329 0-1.853.537-2.393 2.378-2.393 2.663 0 5.137-2.358 4.149-3.956-.355-.574-1.937-1.044-3.516-1.044-2.213 0-2.945-.514-3.191-2.24-.317-2.217-2.765-3.482-4.119-2.128"/><path fill="#1976D2" fill-opacity=".929" fill-rule="evenodd" d="M43.581 1.04c-13.065 2.238-24.413 9.07-32.244 19.411C5.447 28.23 2.436 35.31.953 44.867.288 49.151.028 80.313.22 132.507.518 213.138.529 213.529 2.736 220c5.607 16.437 18.142 28.575 34.764 33.663 5.62 1.721 11.349 1.837 90.5 1.837s84.88-.116 90.5-1.837c18.153-5.557 32.449-20.873 35.622-38.163.606-3.3 1.501-6.781 1.99-7.736 1.275-2.494 1.165-161.053-.112-160.264-.588.364-1.009-.744-1.021-2.691-.034-5.35-4.426-16.281-9.255-23.035-6.607-9.238-14.121-14.77-25.724-18.939L213.5.5 131 .349C85.625.265 46.286.576 43.581 1.04m41.086 15.627c-.367.366-.667 1.716-.667 3C84 21.573 83.471 22 81.107 22c-3.234 0-4.817 2.44-3.002 4.627.627.755 2.21 1.373 3.517 1.373 1.711 0 2.378.561 2.378 2 0 1.467.667 2 2.5 2s2.5-.533 2.5-2c0-1.439.667-2 2.378-2 1.307 0 2.933-.669 3.611-1.487 1.909-2.3.458-4.513-2.958-4.513-2.53 0-3.031-.395-3.031-2.393 0-1.316-.712-2.666-1.582-3-1.958-.752-1.94-.752-2.751.06m82.583 0c-.687.275-1.25 1.587-1.25 2.916 0 2.024-.492 2.417-3.031 2.417-1.784 0-3.271.623-3.612 1.513-.868 2.26 1.662 4.717 4.332 4.206 1.887-.361 2.311-.008 2.311 1.92 0 1.852.539 2.361 2.5 2.361s2.5-.509 2.5-2.361c0-1.928.424-2.281 2.311-1.92 2.67.511 5.2-1.946 4.332-4.206-.337-.88-1.821-1.513-3.545-1.513-2.468 0-3.018-.448-3.282-2.673-.325-2.748-1.379-3.535-3.566-2.66M35.52 20.609c-14.164 3.884-13.523 2.973-13.505 19.164.009 8.896.449 14.577 1.25 16.143.943 1.844 3.602 3.222 11.235 5.822l10 3.406 10-3.19c5.5-1.755 10.787-3.882 11.75-4.727C67.768 55.894 68 53.738 68 41c0-12.733-.233-14.896-1.75-16.24-1.378-1.221-19.847-6.996-21.385-6.687-.201.041-4.406 1.182-9.345 2.536m86.426 6.641a13838 13838 0 0 1-10.564 18.814c-2.96 5.26-5.382 9.872-5.382 10.25 0 .377 9.675.686 21.5.686 12.439 0 21.5-.388 21.5-.921 0-.507-2.162-4.669-4.804-9.25s-7.255-12.939-10.25-18.574c-2.995-5.634-5.755-10.247-6.132-10.25-.378-.003-3.018 4.158-5.868 9.245m76.675-6.271c-5.433 1.551-10.264 3.428-10.735 4.171-.47.742-.862 7.918-.871 15.945-.013 12.664.216 14.797 1.735 16.12.963.839 6.137 2.971 11.5 4.738l9.75 3.212 9.75-3.202c5.363-1.761 10.284-3.71 10.936-4.332 1.565-1.493 2.19-31.155.688-32.657-.948-.948-20.759-7.086-22.253-6.894-.342.043-5.067 1.348-10.5 2.899m-94.691 7.605c-.953 1.149-1.026 2.041-.263 3.25 1.385 2.196 4.335 2.123 5.724-.143.888-1.448.722-2.095-.832-3.25-2.456-1.823-3.011-1.806-4.629.143m42.222.131c-1.286 2.404.311 5.285 2.929 5.285 2.402 0 3.616-2.671 2.221-4.886-1.467-2.33-4.011-2.527-5.15-.399M32.675 33.658c-.901.901 1.251 3.342 2.947 3.342s1.774-1.204.178-2.8c-1.356-1.356-2.169-1.497-3.125-.542M54 35c0 1.273.667 2 1.833 2 2.36 0 3.165-.841 2.491-2.598C57.475 32.19 54 32.671 54 35m142.008-1.32c.004.451 1.156 1.353 2.561 2.005 2.217 1.029 2.51.963 2.232-.5-.319-1.67-4.808-3.079-4.793-1.505m23.659-.013c-1.047 1.047-.779 2.52.333 1.833.55-.34 1.007-.029 1.015.691.012.978.248.942.934-.143 1.399-2.211-.486-4.177-2.282-2.381M84 38.43c0 2.195-.443 2.57-3.031 2.57-1.784 0-3.271.623-3.612 1.513-.858 2.235 1.662 4.717 4.28 4.216 1.826-.349 2.317.067 2.561 2.17.437 3.761 4.184 3.626 4.62-.166.175-1.522.763-2.492 1.307-2.156s2.117.328 3.497-.018c1.88-.472 2.429-1.184 2.193-2.844-.238-1.675-1.092-2.29-3.503-2.524-2.4-.232-3.265-.85-3.5-2.5-.198-1.387-1.137-2.308-2.562-2.511-1.832-.26-2.25.158-2.25 2.25m82.701-1.798c-.385.386-.701 1.526-.701 2.535 0 1.374-.759 1.833-3.031 1.833-3.769 0-5.128 2.677-2.381 4.692 1.051.772 2.674 1.206 3.606.964 1.229-.319 1.778.285 2 2.202.412 3.557 3.971 3.662 4.816.142.432-1.8 1.173-2.42 2.642-2.213 2.453.345 4.799-2.168 3.991-4.274-.337-.879-1.821-1.513-3.542-1.513-2.306 0-3.033-.496-3.281-2.24-.317-2.217-2.765-3.482-4.119-2.128M54.415 47.362c-.335.872.065 2.261.889 3.084 1.329 1.33 1.637 1.33 2.739.002.683-.823 1.065-1.613.85-1.755-.216-.142-1.175-.857-2.131-1.589-1.472-1.125-1.832-1.086-2.347.258m-21.714.27C31.13 49.203 32.129 51 34.573 51c1.906 0 2.487-.451 2.239-1.739-.351-1.82-2.907-2.833-4.111-1.629M196 48.893c0 2.42 2.502 3.412 4.013 1.591 1.469-1.769.449-3.484-2.072-3.484-1.238 0-1.941.686-1.941 1.893m22.534-.948c-.965 1.561.305 3.055 2.598 3.055 1.375 0 1.908-.552 1.68-1.739-.384-1.992-3.305-2.891-4.278-1.316M.477 128c0 44.275.123 62.388.273 40.25s.15-58.362 0-80.5S.477 83.725.477 128m84.898-68.535c-.615 1.602 1.979 5.682 5.998 9.432 2.133 1.99 2.828 2.181 4.098 1.127 2.156-1.789 2.018-2.187-2.556-7.383-4.191-4.761-6.55-5.755-7.54-3.176m77.235 2.836c-3.686 4.497-4.464 7.053-2.517 8.257 1.659 1.025 10.038-7.655 9.694-10.043-.509-3.535-3.409-2.813-7.177 1.786m-37.18-.98c-.31.808-.421 3.203-.247 5.324.254 3.083.718 3.855 2.317 3.855 1.733 0 2-.667 2-4.986 0-3.957-.362-5.056-1.753-5.324-.964-.186-2.007.323-2.317 1.131m-58.087 7.228c-.397 1.035 2.018 4.269 7.281 9.75 9.629 10.027 10.135 10.371 12.203 8.302 1.489-1.488.908-2.328-7.334-10.608-9-9.042-11.054-10.301-12.15-7.444m108.215 7.393c-7.643 7.678-8.717 9.161-7.607 10.5.712.857 1.746 1.558 2.299 1.558C171.358 88 188 71.216 188 70.098c0-.839-2.166-3.098-2.971-3.098-.314 0-4.576 4.024-9.471 8.942M37.5 74.131c-7.064 3.949-5.552 12.876 2.524 14.9l3.476.871-3.878-.201c-4.621-.24-6.882 2.076-4.652 4.763 1.885 2.271 9.903 1.728 11.428-.773.872-1.432.726-2.087-.702-3.15-1.711-1.271-1.672-1.474.75-3.896 3.152-3.152 3.261-6.742.304-10.052-2.676-2.994-6.484-4.009-9.25-2.462m172.965-.201c-3.084 1.283-4.585 3.585-4.687 7.188-.072 2.535.653 3.878 3.277 6.069 3.059 2.554 3.166 2.813 1.157 2.813-3.261 0-3.119 4.734.167 5.559 6.641 1.667 11.625-1.687 8.174-5.5-1.025-1.133-1.355-2.059-.734-2.059 1.824 0 4.285-5.736 3.612-8.418-1.15-4.582-6.682-7.434-10.966-5.652M112 78.276C95.003 84.092 82.928 96.225 77.443 113c-2.64 8.076-2.351 22.596.609 30.5 3.139 8.383 7.683 15.153 14.107 21.019 21.914 20.009 54.306 18.317 74.565-3.895 25.006-27.418 11.935-71.378-24.579-82.66-8.936-2.761-21.546-2.631-30.145.312m-90.96 1.176c-2.657 3.201 1.245 8.118 4.71 5.936C29.212 83.207 27.979 78 24 78c-.965 0-2.297.653-2.96 1.452m205.915.631c-.889 1.662-.764 2.471.62 4 .954 1.054 2.308 1.917 3.009 1.917 1.439 0 4.416-2.696 4.416-4 0-1.539-3.099-4-5.036-4-1.042 0-2.395.937-3.009 2.083m-187.536.048c-.852 1.379 1.105 3.281 2.494 2.423.598-.37 1.087-1.047 1.087-1.506 0-1.33-2.871-2.066-3.581-.917m173.091-.147c-.737 1.193.199 3.016 1.549 3.016 1.217 0 1.225-2.707.01-3.457-.512-.317-1.213-.118-1.559.441M55.323 81.601c-.811 2.113 1.337 3.365 5.805 3.384 3.706.015 6.558-2.066 5.399-3.941-1.091-1.766-10.492-1.299-11.204.557m133.15-.557c-1.159 1.875 1.693 3.956 5.399 3.941 4.468-.019 6.616-1.271 5.805-3.384-.712-1.856-10.113-2.323-11.204-.557M116.5 84.409C109.215 86.214 97 92.924 97 95.121c0 2.3 4.375 1.635 10.158-1.544 3.497-1.922 8.655-3.987 11.464-4.589 3.859-.828 5.378-1.693 6.221-3.542 1.004-2.203.893-2.438-1.114-2.361-1.226.047-4.479.643-7.229 1.324m13.62.954c.798 1.752 2.669 2.803 7.228 4.061 3.384.934 8.52 3.028 11.415 4.653 3.72 2.089 6 2.77 7.777 2.324 3.151-.791 2.242-2.049-4.699-6.503-4.9-3.145-16.081-6.898-20.548-6.898-2.003 0-2.132.26-1.173 2.363m-4.671 8.105C123.523 98.077 123.489 98 127.5 98c1.925 0 3.5-.472 3.5-1.05 0-1.345-2.884-6.95-3.577-6.95-.289 0-1.177 1.561-1.974 3.468m-65.814.605c-3.678 2.893-3.644 7.988.072 10.911C64.4 108.676 71 105.157 71 98.962 71 95.912 67.067 92 64 92c-.952 0-2.916.933-4.365 2.073m127 0c-2.835 2.229-3.555 6.607-1.435 8.727 1.854 1.854 2.639 1.446 2.984-1.55.226-1.969.955-2.841 2.566-3.07 2.289-.325 2.63.357 2.289 4.57-.215 2.659 2.058 3.01 4.39.679 2.362-2.363 1.903-5.251-1.352-8.506-3.456-3.456-5.855-3.672-9.442-.85M111.5 95.86l-6 2.853 3.587 1.524c7.368 3.132 7.332 3.138 9.712-1.76 1.211-2.492 2.201-4.743 2.201-5.004 0-1.223-4.047-.207-9.5 2.387m24.077.89a610 610 0 0 1 2.132 5.03c.554 1.343 1.979 1.084 8.081-1.466 3.398-1.419 3.425-1.475 1.373-2.912-2.376-1.665-9.716-4.402-11.802-4.402-1.145 0-1.107.656.216 3.75m-72.889.896c-1.416 1.415-.615 3.354 1.385 3.354 1.398 0 1.968-.543 1.75-1.667-.357-1.841-2.064-2.759-3.135-1.687m-26.304 2.796c-1.303 3.395.047 5.052 4.375 5.365l4.241.308v-3.558C45 99.069 44.922 99 40.969 99c-2.589 0-4.23.516-4.585 1.442m54.274 1.762c-3.512 4.604-6.305 11.199-7.453 17.599-.91 5.076-.861 5.29 1.163 5 1.713-.246 2.248-1.252 2.822-5.303.39-2.75 2.245-7.998 4.123-11.662 3.877-7.567 3.473-11.046-.655-5.634m70.143-2.106c-.202.604 1.075 3.961 2.836 7.46s3.76 8.855 4.442 11.902c.954 4.265 1.663 5.54 3.08 5.54 1.013 0 1.841-.58 1.841-1.29 0-3.765-3.5-13.771-6.605-18.882-3.48-5.73-4.87-6.904-5.594-4.73M209 102.5v3.615l4.25-.308c3.987-.288 4.25-.492 4.25-3.307s-.263-3.019-4.25-3.307l-4.25-.308zm-109-1.133c0 .728 5.576 10.772 6.089 10.968.773.296 7.911-4.266 7.911-5.056 0-.434-2.811-1.912-6.246-3.284s-6.585-2.645-7-2.828c-.415-.184-.754-.094-.754.2m48.559 2.275c-3.268 1.287-6.349 2.748-6.848 3.247-.542.542.641 1.959 2.941 3.523 3.624 2.464 3.925 2.514 5.176.852 1.779-2.363 5.393-9.393 4.992-9.71-.176-.138-2.994.801-6.261 2.088m-27.671-.001c-.997 1.195 3.639 3.359 7.196 3.359 3.155 0 6.897-1.886 6.386-3.218-.627-1.635-12.235-1.756-13.582-.141m34.799 5.631c-4.489 7.66-2.77 10.555 2.809 4.732 2.764-2.885 2.815-3.113 1.374-6.156l-1.497-3.161zm-60.526-.725c-.639 1.401-1.161 2.728-1.161 2.949 0 1.115 7.056 5.587 7.947 5.037 1.124-.695-3.362-10.533-4.803-10.533-.453 0-1.345 1.146-1.983 2.547m-59.76 1.85c-1.004 2.617.563 3.603 5.728 3.603 4.624 0 4.985-.174 4.691-2.25-.273-1.921-1.016-2.295-5.08-2.555-3.524-.226-4.911.086-5.339 1.202m172.956.115c-.97 2.528.976 3.645 5.757 3.302 3.615-.259 4.386-.666 4.386-2.314 0-1.677-.768-2.049-4.76-2.305-3.66-.235-4.904.07-5.383 1.317m-85.6 4.574c-4.533 1.066-10.228 4.596-14.194 8.801L105.626 127l2.906 3.034c1.599 1.668 5.323 4.216 8.276 5.66 9.88 4.835 20.176 2.991 29.369-5.258l3.677-3.299-4.948-4.628c-7.222-6.756-14.546-9.21-22.149-7.423m-31.583 3.727c-.646 2.155-1.174 4.429-1.174 5.053 0 1.95 2.549 1.243 5.026-1.393l2.374-2.528-2.526-2.525-2.526-2.526zm68.898-1.39L157.651 120l2.349 2.5c4.387 4.67 6.553 1.846 3.702-4.827l-1.209-2.827zm-134.465 1.159c-.334.87-.607 2.67-.607 4 0 1.982-.505 2.418-2.8 2.418-1.54 0-3.329.529-3.976 1.176-1.735 1.735.395 3.824 3.898 3.824 2.504 0 2.878.374 2.878 2.878 0 3.135 2.522 6.017 3.965 4.53.485-.5 1.028-2.258 1.208-3.908l.327-3 11.188-.282 11.187-.282.313 3.782c.248 3.011.72 3.782 2.312 3.782 1.584 0 2.064-.769 2.307-3.693.288-3.47.53-3.712 4-4 2.924-.243 3.693-.723 3.693-2.307s-.769-2.064-3.693-2.307c-3.47-.288-3.712-.53-4-4-.243-2.924-.723-3.693-2.307-3.693-1.592 0-2.064.771-2.312 3.782l-.313 3.782-11.187-.282c-10.415-.263-11.176-.417-11.014-2.24.386-4.355-3.692-7.542-5.067-3.96m10.751-.073c-.946 2.467.954 3.662 5.26 3.309 3.109-.255 3.882-.716 3.882-2.318 0-1.639-.769-2.056-4.259-2.308-3.204-.232-4.414.095-4.883 1.317m160.343-.877c-.385.386-.701 2.174-.701 3.974 0 3.061-.244 3.293-3.75 3.584-2.98.246-3.75.721-3.75 2.31s.77 2.064 3.75 2.31c3.553.294 3.75.493 3.75 3.782 0 2.26.559 3.685 1.601 4.085 1.969.756 3.363-1.274 3.384-4.927L201 130h23v3.441c0 1.893.47 3.731 1.044 4.086 1.717 1.061 3.956-1.57 3.956-4.649 0-2.609.319-2.878 3.417-2.878 1.879 0 3.613-.562 3.852-1.25.843-2.415-.515-3.75-3.816-3.75-3.129 0-3.351-.229-3.643-3.75-.246-2.98-.721-3.75-2.31-3.75s-2.064.77-2.31 3.75l-.311 3.75h-22.758l-.311-3.742c-.296-3.569-2.352-5.383-4.109-3.626m12.623.444c-2.207 2.207-.302 3.924 4.353 3.924 4.055 0 4.433-.205 4.143-2.25-.252-1.774-1.062-2.313-3.824-2.546-1.928-.162-4.03.23-4.672.872M124 122c-1.1 1.1-2 2.83-2 3.845 0 4.062 6.906 6.849 9.8 3.955 1.989-1.989 1.426-6.528-1.023-8.243-2.937-2.058-4.37-1.964-6.777.443m-40.918 12.953C84.355 143.01 91.125 156 94.051 156c1.624 0 1.073-1.97-2.665-9.534-1.988-4.022-3.847-9.372-4.13-11.889-.441-3.907-.841-4.577-2.737-4.577-2.1 0-2.178.268-1.437 4.953M90 130.851c0 .983 2.123 7.444 2.652 8.07.196.231 1.482-.637 2.858-1.93l2.501-2.35-2.18-2.321c-2.116-2.252-5.831-3.189-5.831-1.469m69.176 1.462-2.173 2.313 2.952 2.183 2.953 2.183 1.041-3.746c.572-2.06 1.042-4.084 1.045-4.496.013-1.634-3.769-.619-5.818 1.563m8.415 3.933c-.955 3.436-3.126 8.854-4.824 12.04-2.147 4.028-2.77 6.111-2.043 6.838 2.135 2.135 9.247-9.932 11.153-18.923 1.406-6.636 1.456-6.201-.713-6.201-1.4 0-2.248 1.483-3.573 6.246m-130.924-3.579c-.367.366-.667 1.491-.667 2.5 0 1.533.818 1.833 5 1.833 4.239 0 5-.288 5-1.893 0-1.041-.712-2.166-1.582-2.5-2.111-.81-6.918-.773-7.751.06m173.047-.048c-.393.393-.714 10.479-.714 22.413 0 20.493.116 21.846 2.089 24.354l2.09 2.657 1.93-2.454c1.795-2.283 1.911-4.007 1.66-24.771L216.5 132.5l-3.036-.297c-1.67-.164-3.357.024-3.75.416m-112.526 7.469c-3.224 3.692-3.268 3.861-1.641 6.344.92 1.403 1.976 2.363 2.349 2.133.372-.231 1.726-2.52 3.008-5.088 1.96-3.924 2.114-4.87.964-5.925-1.12-1.028-1.969-.568-4.68 2.536M153 138.473c0 1.829 4.164 10.527 5.039 10.527.352 0 1.184-1.194 1.849-2.653 1.099-2.413.916-2.954-2.036-6-3.533-3.645-4.852-4.154-4.852-1.874m-115.834 2.589c-4.694 1.881-.463 5.592 5.171 4.535 2.648-.497 3.663-1.2 3.663-2.535 0-2.942-4.143-3.88-8.834-2M103 147c-1.666 3.3-2.685 6.005-2.264 6.01.42.006 3.577-.978 7.014-2.185 7.504-2.635 8.385-5.612 2.566-8.675-3.527-1.857-4.133-1.455-7.316 4.85m41.819-4.462c-2.316 1.256-4.676 5.056-3.66 5.894.813.671 13.222 4.52 13.542 4.201.59-.591-5.129-10.994-6.201-11.281-.55-.147-2.207.387-3.681 1.186M117.5 145c.34.55 2.054.955 3.809.9 3.047-.095 3.078-.135.691-.9-3.591-1.15-5.211-1.15-4.5 0m16.5 0-2.5.801 2.691.099c1.48.055 2.969-.35 3.309-.9.703-1.137.049-1.137-3.5 0m-75.023 5.023C57.89 151.11 57 153.145 57 154.545c0 3.182 4.145 7.455 7.232 7.455 3.183 0 6.768-2.695 6.768-5.088 0-2.77-2.699-3.494-5.061-1.357-1.546 1.399-2.252 1.532-3.188.596-.935-.935-.929-1.636.024-3.162 1.618-2.591 1.545-3.652-.298-4.359-.838-.322-2.411.304-3.5 1.393M125 148.795c-1.375.206-2.847.706-3.272 1.112-.424.405.739 4.058 2.584 8.117l3.357 7.38 2.571-5.616c2.695-5.888 4.118-9.788 3.571-9.788-.178 0-1.671-.355-3.318-.79-1.646-.434-4.118-.621-5.493-.415m-89.527 1.249c-1.05 1.699 1.557 3.956 4.568 3.956 4.098 0 5.959-.97 5.959-3.107 0-1.602-.76-1.893-4.941-1.893-2.718 0-5.231.47-5.586 1.044m157.091 2.445c.512 2.729.293 3.629-1.003 4.126-1.011.388-2.167-.061-2.964-1.152-1.499-2.049-4.597-1.371-4.597 1.006 0 2.318 3.698 5.531 6.365 5.531 3.42 0 7.635-3.665 7.635-6.638 0-3.609-1.766-6.362-4.08-6.362-1.755 0-1.927.444-1.356 3.489m-81.231 1.32c-2.292.93-4.453 1.977-4.802 2.327-.35.349 1.441 1.64 3.979 2.869 4.956 2.399 11.508 4.194 11.462 3.14-.063-1.442-4.629-9.527-5.517-9.768-.525-.142-2.83.502-5.122 1.432m25.171 1.184c-.852 1.646-1.989 4.152-2.527 5.568-.902 2.372-.802 2.522 1.272 1.903 4.062-1.211 13.751-5.723 13.751-6.403 0-.628-8.671-4.077-10.224-4.066-.399.003-1.421 1.352-2.272 2.998m-101.581 2.93c-1.608 1.608-2.923 3.596-2.923 4.418 0 2.832 1.218 4.659 3.107 4.659 1.64 0 1.893.776 1.893 5.809 0 6.833 1.618 9.764 4.826 8.746 1.961-.622 2.174-1.38 2.174-7.729 0-5.847.254-6.942 1.5-6.464 2.754 1.057 4.5-.448 4.5-3.88 0-2.462-.784-3.964-3.077-5.893-4.167-3.507-8.273-3.392-12 .334m63.665.288c-1.412.79-1.481 1.213-.408 2.506 3.824 4.608 17.124 10.283 24.099 10.283 3.821 0 3.914-.077 2.551-2.13-.936-1.408-3.654-2.693-8.034-3.796-3.642-.916-8.846-3.049-11.565-4.74-3.68-2.287-5.379-2.83-6.643-2.123M151 159.63c-4.154 2.862-13.151 6.37-16.338 6.37-2.575 0-4.662 1.718-4.662 3.839 0 3.856 21.414-3.219 26.392-8.72 1.7-1.878 1.697-2-.059-2.93-1.385-.734-2.688-.381-5.333 1.441m17.004 8.866c-1.632 1.966-.394 3.767 8.921 12.974 7.481 7.396 8.181 7.852 9.707 6.327 1.525-1.526 1.042-2.297-6.701-10.693-4.59-4.977-8.894-9.26-9.565-9.517s-1.734.151-2.362.909m-93.055 8.559c-7.626 8.354-8.141 9.182-6.644 10.678s2.335.922 10.816-7.423c6.55-6.446 9.014-9.516 8.568-10.678-1.313-3.423-4.571-1.525-12.74 7.423m-53.458-5.672C18.86 173.307 20.212 178 23.397 178c1.297 0 2.914-.669 3.592-1.487 2.589-3.119-2.173-7.562-5.498-5.13m33.832 1.218c-.867 2.258 1.572 3.463 5.677 2.805 5.363-.861 6.013-1.208 5.376-2.868-.85-2.215-10.199-2.162-11.053.063m133.154-.563c-1.248 2.018 1.126 3.09 6.133 2.772 3.542-.224 4.89-.724 4.89-1.81 0-1.872-9.926-2.738-11.023-.962m38.629.764c-1.441 2.693.753 5.494 3.95 5.043 1.972-.278 2.444-.924 2.444-3.345 0-2.511-.437-3.051-2.683-3.31-1.838-.212-3.006.295-3.711 1.612M90.908 187.75c-6.312 7.039-6.395 7.192-4.77 8.816 1.338 1.339 1.794 1.275 4.145-.574 1.453-1.143 3.601-3.425 4.773-5.07 1.712-2.404 1.891-3.28.915-4.457-1.672-2.015-2.231-1.873-5.063 1.285m34.519-1.419c-.313.813-.424 2.984-.247 4.824.246 2.572.782 3.345 2.32 3.345 1.703 0 2-.667 2-4.486 0-3.481-.393-4.562-1.753-4.824-.964-.186-2.008.328-2.32 1.141m34.24-.664c-1.573 1.572-.383 4.196 3.74 8.241 4.293 4.214 6.593 4.674 6.593 1.321 0-1.548-7.674-10.229-9.042-10.229-.343 0-.925.3-1.291.667m-121.673 4.267c-4.921 1.497-8.844 4.073-12.233 8.032-10.261 11.988-6.321 30.699 7.933 37.673 9.84 4.814 20.046 3.407 27.919-3.85 10.631-9.8 10.366-26.228-.583-36.072-6.701-6.025-15.215-8.162-23.036-5.783m165 0c-17.287 5.259-23.572 24.953-12.567 39.382 3.778 4.953 12.481 9.113 19.066 9.113 9.999 0 19.38-6.094 23.104-15.007 2.325-5.564 1.813-15.679-1.082-21.393-5.076-10.016-17.723-15.379-28.521-12.095m-164.957 6.122c-3.484 1.467-3.573 1.694-1.543 3.938 2.633 2.909 13.389 2.897 16.027-.018 1.391-1.536 1.552-2.303.67-3.185-1.539-1.539-12.036-2.048-15.154-.735m164.64.131-2.823 1.028 2.247 2.393c2.924 3.112 8.831 3.215 13.647.239l3.483-2.153-2.365-1.312c-2.793-1.548-10.197-1.65-14.189-.195m-96.659 4.24c.015.841 16.743 31.883 20.766 38.532.657 1.087 2.12-.827 5.727-7.5 2.664-4.927 7.642-13.909 11.061-19.959 3.42-6.05 6.009-11.345 5.754-11.766-.752-1.242-43.329-.561-43.308.693m115.553 2.824c-1.248 1.905-1.311 2.986-.355 6.1.858 2.797.875 4.857.063 7.898-.918 3.441-.827 4.489.561 6.401 2.208 3.042 2.799 2.932 4.835-.9 2.205-4.151 2.201-13.174-.009-17.437-2.253-4.347-3.316-4.777-5.095-2.062m-193.886 2.283c-2.18 4.572-2.107 13.018.15 17.25l1.752 3.285 2.302-2.45c2.125-2.263 2.202-2.726 1.002-6.044-1.009-2.79-1.046-4.541-.167-7.834.951-3.56.878-4.522-.451-5.991-2.196-2.428-2.666-2.245-4.588 1.784m29.538-1.784c-1.506 3.113-.706 19.196 1.043 20.944 1.406 1.406 1.725 1.232 3.343-1.82 2.328-4.391 2.36-13.297.064-17.624-1.936-3.649-3.203-4.076-4.45-1.5m135.226 1.718c-1.906 4.562-1.839 11.517.16 16.512 1.864 4.658 2.742 4.94 4.939 1.587 1.294-1.974 1.369-2.854.398-4.668-.775-1.448-.976-4.338-.571-8.214.903-8.634-2.148-11.865-4.926-5.217m-107.748.164c-.385.386-.701 1.751-.701 3.035 0 1.926-.524 2.333-3 2.333-2.333 0-3 .444-3 2s.667 2 3 2c2.303 0 3 .451 3 1.941 0 1.068.409 2.194.91 2.503 1.562.966 4.09-.572 4.09-2.488 0-1.333.882-1.914 3.25-2.143 4.376-.422 4.423-3.199.061-3.622-2.621-.254-3.245-.787-3.5-2.991-.298-2.573-2.641-4.037-4.11-2.568m82 0c-.385.386-.701 1.751-.701 3.035 0 1.895-.532 2.333-2.833 2.333-3.328 0-4.23.671-3.491 2.598.296.771 1.809 1.402 3.361 1.402 2.167 0 2.898.523 3.143 2.25.21 1.477 1.007 2.25 2.32 2.25s2.11-.773 2.32-2.25c.248-1.749.972-2.25 3.25-2.25 2.263 0 2.93-.455 2.93-2s-.667-2-2.934-2c-2.454 0-2.985-.448-3.25-2.741-.302-2.621-2.633-4.109-4.115-2.627M207 207.191c0 1.529 2.276 1.962 3.56.677 1.158-1.157.989-1.368-1.096-1.368-1.355 0-2.464.311-2.464.691M43.638 208.5c.317.825.698 1.5.847 1.5.148 0 .83-.675 1.515-1.5 1.039-1.252.899-1.5-.846-1.5-1.448 0-1.914.461-1.516 1.5m74.724 0c-.945 2.462.414 4.5 3 4.5s3.944-2.038 3-4.5c-.317-.825-1.667-1.5-3-1.5-1.334 0-2.684.675-3 1.5m12.125.543c-.863 2.717.588 4.225 3.648 3.792 1.767-.25 2.365-.967 2.365-2.835 0-3.44-4.974-4.232-6.013-.957M202 213.655c0 3.597.032 3.626 2.008 1.838 1.88-1.701 1.902-1.935.345-3.655-2.241-2.477-2.353-2.391-2.353 1.817m-164.342-1.98c-1.022 1.023-.774 5.325.307 5.325 1.837 0 3.103-3.699 1.672-4.886-.727-.603-1.617-.801-1.979-.439m11.912 1.003c-.364.949.024 2.344.893 3.214 1.383 1.382 1.537 1.214 1.537-1.678 0-3.436-1.369-4.301-2.43-1.536m164.762-.1c-.333.867.131 2.314 1.031 3.214 1.516 1.515 1.637 1.399 1.637-1.578 0-3.358-1.625-4.355-2.668-1.636m-89.402 6.006c-1.776 2.14.011 4.916 3.165 4.916 2.721 0 3.748-2.779 1.865-5.048-1.568-1.89-3.392-1.842-5.03.132M43 219.5c-1.063 1.281-.771 1.5 2 1.5s3.063-.219 2-1.5c-.685-.825-1.585-1.5-2-1.5s-1.315.675-2 1.5m165-.5c0 .55.702 1 1.559 1s1.281-.45.941-1-1.041-1-1.559-1-.941.45-.941 1m-104 5.531c0 3.036 2.583 4.314 4.614 2.283 1.999-1.999.7-4.814-2.221-4.814-1.894 0-2.393.528-2.393 2.531m42.667-1.864c-1.267 1.266-.661 4.121 1.011 4.763 2.124.815 4.793-1.761 3.99-3.852-.608-1.584-3.755-2.158-5.001-.911M84 226.5c0 2.1-.471 2.5-2.941 2.5-3.295 0-4.36 1.052-3.455 3.41.358.934 1.775 1.59 3.437 1.59 2.34 0 2.881.473 3.143 2.75.441 3.839 4.185 3.887 4.627.059.255-2.214.876-2.746 3.5-3 2.419-.234 3.189-.792 3.189-2.309 0-1.525-.771-2.074-3.25-2.313-2.692-.26-3.25-.732-3.25-2.75 0-1.933-.517-2.437-2.5-2.437-2 0-2.5.5-2.5 2.5m82 0c0 2.1-.471 2.5-2.941 2.5-3.295 0-4.36 1.052-3.455 3.41.358.934 1.775 1.59 3.437 1.59 2.34 0 2.881.473 3.143 2.75.227 1.978.878 2.75 2.316 2.75s2.089-.772 2.316-2.75c.266-2.311.791-2.75 3.282-2.75 1.829 0 3.207-.63 3.596-1.645.801-2.087-2.112-4.32-4.74-3.633-1.571.411-1.954-.002-1.954-2.105 0-2.125-.47-2.617-2.5-2.617-2 0-2.5.5-2.5 2.5m36.75-.385c-3.597 2.684-3.476 4.436.399 5.787 4.37 1.523 9.261 1.371 13.552-.421l3.636-1.52-2.856-2.98c-2.365-2.47-3.638-2.976-7.418-2.949-3.002.021-5.504.733-7.313 2.083m-167.383 2.031c-1.57 1.736-1.466 1.915 1.955 3.344 4.625 1.932 10.748 1.926 15.397-.017 3.429-1.433 3.551-1.632 1.969-3.214-2.566-2.565-17.024-2.65-19.321-.113"/></svg>